<?xml version="1.0" encoding="utf-8"?>
<!-- Generator: Adobe Illustrator 21.1.0, SVG Export Plug-In . SVG Version: 6.00 Build 0)  -->
<svg version="1.1" id="Layer_1" xmlns="http://www.w3.org/2000/svg" xmlns:xlink="http://www.w3.org/1999/xlink" x="0px" y="0px"
	 viewBox="0 0 16 16" style="enable-background:new 0 0 16 16;" xml:space="preserve">
<style type="text/css">
	.st0{fill:#3498DB;}
</style>
<g id="surface1">
	<path class="st0" d="M7.9,1C7.9,1,7.9,1,7.9,1L2.1,3.5c0,0-0.1,0-0.1,0c-0.1,0-0.1,0.1-0.1,0.1c0,0,0,0,0,0c0,0,0,0,0,0.1
		c0,0,0,0,0,0c0,0,0,0.1,0,0.1c0,0,0,0,0,0l0.4,5.7c0,0.1,0,0.2,0.1,0.2l2.2,1.6c0,0.2-0.1,0.4-0.1,0.5C4.4,13.6,6,15,8,15
		s3.5-1.4,3.5-3.1c0-0.2,0-0.3-0.1-0.5l2.2-1.6c0.1-0.1,0.1-0.1,0.1-0.2l0.4-5.7v0c0,0,0,0,0-0.1c0,0,0,0,0,0c0,0,0,0,0,0
		c0,0,0,0,0,0c0,0,0-0.1,0-0.1c0,0,0,0,0,0c0,0,0,0,0,0c0,0,0,0,0,0c0,0,0,0,0,0c0,0,0,0-0.1,0l-0.1,0L8.1,1.1C8,1,8,1,7.9,1z
		 M8,1.6l5.2,2.2L8,6.8L2.8,3.9L8,1.6z M8,2.4L7.1,2.8L7.4,3c0,0,0.1,0.1,0.1,0.1c0,0,0,0.1,0,0.1L6.9,3.7l1.3-0.5
		c0.1,0,0.1,0,0.2,0s0,0.1,0,0.2L8,3.9l0.6-0.2c0.1,0,0.1,0,0.2,0c0,0,0,0.1,0,0.2L8.4,4.6l0.9,0.6l2.1-1.2L8,2.4z M6.7,2.9l-2.3,1
		l3.5,2l1.1-0.6L8.2,4.7c-0.1,0-0.1-0.1-0.1-0.2L8.4,4L7.6,4.3c-0.1,0-0.1,0-0.2-0.1c0-0.1,0-0.1,0-0.2l0.4-0.4L6.3,4.3
		c-0.1,0-0.1,0-0.2-0.1c0-0.1,0-0.1,0-0.2l0.9-0.9L6.7,2.9z M2.5,4.3l5.2,3V13L2.8,9.4L2.5,4.3z M13.5,4.3l-0.3,5.1L8.2,13V7.3
		L13.5,4.3z M12.6,5.6L9,7.8l-0.1,3.7l3.4-2.4L12.6,5.6z M3.3,5.7L3.5,9l3.3,2.4L6.7,7.9L3.3,5.7z"/>
</g>
</svg>
